# xmcd CD database file
#
# Track frame offsets:
#	150
#	18830
#	36909
#	52309
#	73498
#	101087
#	120924
#	156420
#	179343
#	203575
#	232422
#	252672
#	271460
#	284532
#	301800
#
# Disc length: 4463 seconds
#
# Revision: 3
# Processed by: cddbd v1.5.1PL2 Copyright (c) Steve Scherf et al.
# Submitted via: CDex 1.60beta1-cs1
#
DISCID=e8116d0f
DTITLE=Bluestream Jazzband - The Livingroom Sessions Vol. 1
DYEAR=2006
DGENRE=Blues
TTITLE0=Taps Miller
TTITLE1=I Ain't Gonna Give Nobody None Of My Jelly Roll
TTITLE2=Satin Doll
TTITLE3=It Don't Mean A Thing
TTITLE4=Kansas City Man Blues
TTITLE5=In the Hall Of The Mountain King
TTITLE6=New Orleans Blues
TTITLE7=Moten Swing
TTITLE8=Count' Em
TTITLE9=Perdido
TTITLE10=Splanky
TTITLE11=Harmony In Harlem
TTITLE12=Trouble In Mind
TTITLE13=Outer Drive
TTITLE14=Blues March
EXTD=YEAR: 2006
EXTT0=
EXTT1=
EXTT2=
EXTT3=
EXTT4=
EXTT5=
EXTT6=
EXTT7=
EXTT8=
EXTT9=
EXTT10=
EXTT11=
EXTT12=
EXTT13=
EXTT14=
PLAYORDER=
